<?xml version="1.0" encoding="UTF-8"?>
<svg version="1.1" xmlns="http://www.w3.org/2000/svg" width="500" height="500">
<path d="M0 0 C12.17141458 -0.04666905 24.3428073 -0.08204274 36.51429367 -0.10362434 C42.16809028 -0.11399073 47.82182496 -0.1280167 53.47558594 -0.15087891 C58.9480575 -0.1728655 64.4204701 -0.18462209 69.89298248 -0.18975449 C71.9641945 -0.19340452 74.03540388 -0.20052945 76.10659027 -0.21146011 C86.39893012 -0.26353816 96.59776478 -0.12401605 106.84863281 0.87158203 C108.02927874 0.985006 108.02927874 0.985006 109.23377609 1.10072136 C127.78665645 3.12388357 146.58169089 10.02466021 161 22 C161 22.66 161 23.32 161 24 C161.66 24 162.32 24 163 24 C163 24.66 163 25.32 163 26 C163.59296875 26.26167969 164.1859375 26.52335937 164.796875 26.79296875 C177.87112665 33.9559896 184.59728708 53.51633793 188.96484375 66.97265625 C192.33761752 78.63473471 193.36311359 90.07745347 193.3125 102.1875 C193.31100952 102.86842712 193.30951904 103.54935425 193.3079834 104.25091553 C193.2664963 114.80504865 192.64729055 124.75464176 190 135 C189.73316406 136.09054687 189.46632813 137.18109375 189.19140625 138.3046875 C184.75696751 154.42633589 177.18604068 168.47266422 165 180 C163.6696875 181.3921875 163.6696875 181.3921875 162.3125 182.8125 C160 185 160 185 158 185 C158 185.66 158 186.32 158 187 C148.93127196 192.55425137 140.20509751 196.8392375 130 200 C128.34291016 200.52980469 128.34291016 200.52980469 126.65234375 201.0703125 C118.69316208 203.09628602 110.70333775 203.14542675 102.52929688 203.12939453 C101.41768188 203.13114685 100.30606689 203.13289917 99.1607666 203.13470459 C95.51341152 203.13908026 91.86610551 203.13620188 88.21875 203.1328125 C85.67810049 203.13348639 83.13745105 203.13445712 80.59680176 203.13571167 C75.28783491 203.1371825 69.9788855 203.13514845 64.66992188 203.13037109 C58.5275561 203.12490773 52.38522341 203.12670969 46.24285841 203.1321975 C40.3262959 203.13727206 34.4097437 203.13674889 28.49317932 203.13381577 C25.97644547 203.1331468 23.45971078 203.13397385 20.94297791 203.13629532 C17.44047764 203.13881905 13.93804227 203.13498629 10.43554688 203.12939453 C8.86317261 203.13243088 8.86317261 203.13243088 7.2590332 203.13552856 C5.83766052 203.13129883 5.83766052 203.13129883 4.38757324 203.12698364 C3.5595092 203.12660662 2.73144516 203.12622959 1.87828827 203.12584114 C0 203 0 203 -1 202 C-1.10003289 199.86646826 -1.13081048 197.72962458 -1.1328125 195.59375 C-1.13410156 194.29308594 -1.13539063 192.99242187 -1.13671875 191.65234375 C-1.13462402 190.97155762 -1.1325293 190.29077148 -1.13037109 189.58935547 C-1.1250224 187.50871485 -1.1303168 185.42829011 -1.13671875 183.34765625 C-1.13542969 182.04699219 -1.13414062 180.74632812 -1.1328125 179.40625 C-1.13168457 178.20291016 -1.13055664 176.99957031 -1.12939453 175.75976562 C-1 173 -1 173 0 172 C7.59 172 15.18 172 23 172 C23 126.79 23 81.58 23 35 C15.41 35 7.82 35 0 35 C-0.91083139 26.70131404 -0.96213522 18.83193786 -0.52734375 10.5078125 C-0.47767456 9.49404541 -0.42800537 8.48027832 -0.37683105 7.43579102 C-0.25486288 4.95698862 -0.12916962 2.47843579 0 0 Z M65 35 C65 80.21 65 125.42 65 172 C102.62776319 173.41578659 102.62776319 173.41578659 133.68359375 156.46875 C149.40007067 139.71864307 151.63196314 119.74011145 151.25390625 97.71875 C150.64305748 79.32575592 145.3634151 62.98484659 133 49 C112.34207761 33.26063056 91.06997497 35 65 35 Z " fill="#F8F8F8" transform="translate(255,149)"/>
<path d="M0 0 C1.24970581 0.01450195 1.24970581 0.01450195 2.5246582 0.02929688 C8.80009617 0.2507178 13.65582154 1.49926436 18.5625 5.625 C18.5625 6.285 18.5625 6.945 18.5625 7.625 C19.2225 7.625 19.8825 7.625 20.5625 7.625 C21.81640625 9.26953125 21.81640625 9.26953125 23.125 11.4375 C23.55941406 12.14519531 23.99382812 12.85289062 24.44140625 13.58203125 C26.88784841 18.04018194 26.81492918 22.35865954 26.875 27.3125 C26.90400391 28.09044922 26.93300781 28.86839844 26.96289062 29.66992188 C27.04179446 36.94728352 24.52831364 41.67627955 20.5625 47.625 C19.9025 47.625 19.2425 47.625 18.5625 47.625 C18.5625 48.285 18.5625 48.945 18.5625 49.625 C11.27470968 55.31303147 3.58139346 56.60504482 -5.4375 55.625 C-12.58728999 53.886987 -18.09323786 50.60556246 -22.4375 44.625 C-26.96614561 37.11309229 -27.41115365 29.21085487 -26.4375 20.625 C-24.21079223 11.65863128 -19.45709634 6.48131932 -11.71142578 1.70532227 C-7.85378686 -0.12740827 -4.20847087 -0.11825106 0 0 Z M-10.99609375 13.01953125 C-15.45106177 18.24122967 -16.90342356 22.20881646 -16.75390625 28.95703125 C-16.0913684 34.54361584 -13.98167854 38.99735235 -10.125 43.0625 C-4.1628337 46.52887576 0.12117975 46.90341087 6.64453125 45.23046875 C8.61806817 44.66272063 8.61806817 44.66272063 10.5625 43.625 C10.5625 42.965 10.5625 42.305 10.5625 41.625 C11.2225 41.625 11.8825 41.625 12.5625 41.625 C17.23255102 35.95110624 17.22302517 31.37148887 17 24.26953125 C16.40592654 19.32068712 15.31152716 15.98530314 11.5625 12.625 C4.23445134 8.07430786 -4.12288433 6.86981756 -10.99609375 13.01953125 Z " fill="#E7E7E7" transform="translate(78.4375,230.375)"/>
<path d="M0 0 C1.52519276 0.08937803 3.04681929 0.24537146 4.5625 0.4375 C5.80193359 0.59025391 5.80193359 0.59025391 7.06640625 0.74609375 C7.70449219 0.82988281 8.34257813 0.91367188 9 1 C10.01902705 7.88639374 10.06725927 14.54210649 9.9609375 21.49023438 C9.52805531 31.9516867 9.52805531 31.9516867 12.875 41.5625 C16.88222605 44.68813632 19.44093932 44.68703996 24.40625 44.38671875 C27.67732997 43.89901255 29.56963531 43.2784669 32 41 C34.67266529 36.49936363 35.44660335 32.95336763 35.6875 27.75 C35.72093506 27.07195312 35.75437012 26.39390625 35.78881836 25.6953125 C36.14871984 17.46899285 36.08574651 9.23166473 36 1 C39.1964086 -0.06546953 41.65747276 -0.07427838 45 0 C47.65971389 4.97881047 47.27095611 9.99175092 47.23046875 15.48046875 C47.23001053 16.48966873 47.22955231 17.49886871 47.2290802 18.53865051 C47.22606534 20.66599711 47.21820203 22.79334165 47.20581055 24.9206543 C47.18750777 28.18611414 47.18530129 31.451291 47.18554688 34.71679688 C47.18063314 36.78385663 47.17480546 38.85091446 47.16796875 40.91796875 C47.16685593 41.89815475 47.1657431 42.87834076 47.16459656 43.88822937 C47.15821671 44.79289444 47.15183685 45.69755951 47.14526367 46.62963867 C47.13954597 47.82613289 47.13954597 47.82613289 47.13371277 49.04679871 C47 51 47 51 46 53 C43.03 53 40.06 53 37 53 C36.67 51.35 36.34 49.7 36 48 C35.01 48.33 34.02 48.66 33 49 C33 49.66 33 50.32 33 51 C26.38216443 54.72453065 21.43482389 55.70150198 14 54 C7.27953095 51.90673915 4.48116499 48.84580573 0.75 43.0625 C-1.21548007 37.65742982 -1.14967773 31.81975252 -1.1328125 26.1328125 C-1.13376923 25.41261932 -1.13472595 24.69242615 -1.13571167 23.95040894 C-1.13638726 22.44284985 -1.13457671 20.93528775 -1.13037109 19.42773438 C-1.12496644 17.110612 -1.13036111 14.79367931 -1.13671875 12.4765625 C-1.13605878 11.00781207 -1.13477931 9.53906176 -1.1328125 8.0703125 C-1.13483673 7.37559845 -1.13686096 6.6808844 -1.13894653 5.96511841 C-1.1149841 1.1149841 -1.1149841 1.1149841 0 0 Z " fill="#EAEAEA" transform="translate(115,231)"/>
<path d="M0 0 C-0.56979315 5.97604482 -1.85117019 11.25522513 -3.75 16.9375 C-4.29570988 18.61541808 -4.8399515 20.2938143 -5.3828125 21.97265625 C-5.65512695 22.81199707 -5.92744141 23.65133789 -6.20800781 24.51611328 C-7.81055769 29.54211282 -9.25957221 34.6128487 -10.7265625 39.6796875 C-12.08093289 44.32058828 -13.51215515 48.93744068 -14.93847656 53.55664062 C-15.97767985 56.92759811 -17.0077277 60.30121842 -18.03515625 63.67578125 C-18.7109375 65.88802083 -19.38671875 68.10026042 -20.0625 70.3125 C-20.40087891 71.42689453 -20.73925781 72.54128906 -21.08789062 73.68945312 C-24.76308965 85.69605109 -24.76308965 85.69605109 -27 91 C-30.2830098 92.6415049 -33.42545033 91.51888624 -37 91 C-34.70451872 81.09318605 -31.77170641 71.40539318 -28.81152344 61.68164062 C-27.99181936 58.97296745 -27.1852873 56.26069887 -26.3828125 53.546875 C-26.11960205 52.65935547 -25.8563916 51.77183594 -25.58520508 50.85742188 C-25.08567586 49.1718067 -24.58798941 47.48564384 -24.0925293 45.79882812 C-23.01239556 42.16891384 -21.87817525 38.60171733 -20.5078125 35.0703125 C-18.36469819 29.49198329 -16.90046641 23.71485997 -15.33789062 17.953125 C-13.62292309 11.78105187 -11.49551876 5.89936506 -9 0 C-2.25 -1.125 -2.25 -1.125 0 0 Z " fill="#E7E7E7" transform="translate(240,208)"/>
<path d="M0 0 C3.3 0.33 6.6 0.66 10 1 C10.33 1.99 10.66 2.98 11 4 C11.7425 3.34 12.485 2.68 13.25 2 C17.94531961 -1.22094389 23.55789549 -0.3170158 29 0 C29.76411467 3.73567172 30.07174763 6.34811918 29 10 C28.10796875 10.01417969 27.2159375 10.02835938 26.296875 10.04296875 C25.12640625 10.09066406 23.9559375 10.13835937 22.75 10.1875 C21.58984375 10.22230469 20.4296875 10.25710937 19.234375 10.29296875 C15.84612201 10.72836067 15.84612201 10.72836067 13.640625 13.36328125 C10.8934428 17.77839551 10.79946583 21.68149754 10.68359375 26.73046875 C10.66281265 27.48088943 10.64203156 28.23131012 10.62062073 29.00447083 C10.55530074 31.39872184 10.49632208 33.79308139 10.4375 36.1875 C10.39429807 37.81186013 10.35068324 39.43620933 10.30664062 41.06054688 C10.19963737 45.04025371 10.09832063 49.02006958 10 53 C6.7 53 3.4 53 0 53 C-0.8085343 46.62767384 -1.14781843 40.4234938 -1.1328125 34.00390625 C-1.13376923 33.08915024 -1.13472595 32.17439423 -1.13571167 31.23191833 C-1.13638722 29.31680227 -1.13457693 27.40168383 -1.13037109 25.48657227 C-1.12497031 22.54633533 -1.13035938 19.60624815 -1.13671875 16.66601562 C-1.13605871 14.79947883 -1.13477907 12.93294213 -1.1328125 11.06640625 C-1.13483673 10.18626358 -1.13686096 9.30612091 -1.13894653 8.39930725 C-1.11498767 2.22997533 -1.11498767 2.22997533 0 0 Z " fill="#E4E4E3" transform="translate(174,231)"/>
<path d="M0 0 C0.99 0 1.98 0 3 0 C3 0.66 3 1.32 3 2 C2.01 2.495 2.01 2.495 1 3 C0.67 13.23 0.34 23.46 0 34 C-0.33 34 -0.66 34 -1 34 C-1.02465288 29.31860746 -1.04283739 24.63725241 -1.05493164 19.95581055 C-1.05997157 18.36205386 -1.0668035 16.76830181 -1.07543945 15.17456055 C-1.08751999 12.88849747 -1.09323155 10.60249533 -1.09765625 8.31640625 C-1.10281754 7.59973282 -1.10797882 6.88305939 -1.11329651 6.14466858 C-1.11349263 4.42936328 -1.06192007 2.71418734 -1 1 C-0.67 0.67 -0.34 0.34 0 0 Z " fill="#838383" transform="translate(115,231)"/>
<path d="M0 0 C1.11841676 3.35525029 0.91538821 3.97089854 -0.3125 7.125 C-0.70888672 8.18074219 -0.70888672 8.18074219 -1.11328125 9.2578125 C-2 11 -2 11 -4 12 C-6.69565202 11.83219837 -9.32405554 11.38844355 -12 11 C-11.67 9.35 -11.34 7.7 -11 6 C-10.67 7.32 -10.34 8.64 -10 10 C-7.36 9.67 -4.72 9.34 -2 9 C-1.34 6.03 -0.68 3.06 0 0 Z " fill="#ADADAD" transform="translate(215,288)"/>
<path d="M0 0 C0.33 0.66 0.66 1.32 1 2 C1.99 2.33 2.98 2.66 4 3 C4.33 3.99 4.66 4.98 5 6 C3.5625 8.1875 3.5625 8.1875 2 10 C-0.09350689 6.5980513 -0.17942163 3.94727588 0 0 Z " fill="#C6C6C4" transform="translate(115,266)"/>
</svg>
