<?xml version="1.0" standalone="no"?>
<!DOCTYPE svg PUBLIC "-//W3C//DTD SVG 20010904//EN"
 "http://www.w3.org/TR/2001/REC-SVG-20010904/DTD/svg10.dtd">
<svg version="1.0" xmlns="http://www.w3.org/2000/svg"
 width="512.000000pt" height="512.000000pt" viewBox="0 0 512.000000 512.000000"
 preserveAspectRatio="xMidYMid meet">

<g transform="translate(0.000000,512.000000) scale(0.100000,-0.100000)"
fill="#000000" stroke="none">
<path d="M4115 4094 c-89 -20 -232 -88 -312 -148 -181 -137 -273 -342 -273
-604 0 -219 128 -459 353 -664 263 -240 347 -334 403 -451 109 -228 39 -489
-159 -585 -79 -38 -146 -52 -256 -52 -97 0 -138 10 -192 49 -84 59 -111 136
-111 311 1 105 6 145 32 250 33 131 47 249 36 295 -16 63 -169 74 -276 20
-134 -68 -289 -290 -347 -495 -27 -99 -25 -318 6 -425 25 -89 86 -210 133
-264 94 -107 240 -195 380 -231 421 -105 942 41 1226 345 148 158 218 306 242
512 25 217 -30 446 -151 624 -54 80 -191 222 -303 314 -47 39 -85 73 -86 78 0
4 8 7 18 7 9 0 54 13 99 29 174 60 304 196 349 366 31 113 9 324 -44 435 -58
120 -206 234 -360 276 -84 23 -318 28 -407 8z m348 -407 c82 -41 102 -74 101
-167 -1 -126 -55 -253 -163 -384 -30 -36 -58 -66 -62 -66 -10 0 -150 149 -200
215 -51 67 -102 161 -131 245 l-19 55 51 47 c71 66 143 89 270 85 81 -2 104
-7 153 -30z"/>
<path d="M1272 4089 c-123 -17 -291 -64 -406 -115 -240 -105 -461 -289 -527
-439 -24 -53 -18 -82 17 -91 52 -13 121 8 279 82 280 134 441 180 664 191 275
13 500 -56 597 -184 63 -82 78 -142 78 -293 0 -173 -27 -273 -98 -357 -25 -30
-27 -30 -78 -21 -73 14 -281 4 -347 -17 -136 -42 -183 -165 -100 -259 17 -20
54 -45 87 -58 52 -21 74 -23 236 -24 l179 0 29 -35 c16 -19 47 -70 68 -114 50
-101 71 -217 71 -390 1 -197 -28 -282 -133 -392 -72 -74 -205 -146 -313 -168
-113 -24 -286 -19 -434 11 -69 14 -130 29 -135 34 -10 10 17 511 35 655 6 44
35 192 65 329 116 528 158 835 136 981 -13 79 -24 95 -66 95 -73 0 -183 -92
-268 -224 -194 -302 -402 -1027 -423 -1473 -3 -65 -8 -136 -11 -159 l-5 -40
-102 23 c-127 29 -207 30 -230 5 -23 -25 -21 -87 4 -139 39 -80 189 -197 352
-273 158 -74 446 -163 629 -194 386 -67 797 -21 1081 120 163 81 273 175 363
311 103 155 135 295 116 518 -13 158 -40 248 -104 355 -52 87 -182 216 -290
286 l-78 51 63 41 c292 190 399 490 296 829 -84 276 -354 466 -751 528 -124
20 -444 28 -546 14z"/>
</g>
</svg>
